<?xml version="1.0"?>
<svg xmlns="http://www.w3.org/2000/svg" id="FilledOutline" viewBox="0 0 512 512" width="512" height="512"><path d="M160,40a16,16,0,0,0-16-16h0a16,16,0,0,0-16,16V64a16,16,0,0,0-16-16h0A16,16,0,0,0,96,64V88A16,16,0,0,0,80,72h0A16,16,0,0,0,64,88v28.223A151.554,151.554,0,0,0,80,184h0V384h96V196.844a24,24,0,0,1,10.687-19.969L208.555,162.3A34.686,34.686,0,0,0,224,133.437h0a34.687,34.687,0,0,0-19.174-31.024L192,96V56a16,16,0,0,0-16-16h0a16,16,0,0,0-16,16Z" style="fill:#f5be98"/><rect x="64" y="368" width="128" height="128" style="fill:#e9732d"/><path d="M352,56a16,16,0,0,0-16-16h0a16,16,0,0,0-16,16V96l-12.826,6.413A34.687,34.687,0,0,0,288,133.437h0a34.686,34.686,0,0,0,15.445,28.86l21.868,14.578A24,24,0,0,1,336,196.844V384h96V184h0a151.554,151.554,0,0,0,16-67.777V88a16,16,0,0,0-16-16h0a16,16,0,0,0-16,16V64a16,16,0,0,0-16-16h0a16,16,0,0,0-16,16V40a16,16,0,0,0-16-16h0a16,16,0,0,0-16,16Z" style="fill:#f5be98"/><rect x="320" y="368" width="128" height="128" style="fill:#e9732d"/><rect x="56" y="264" width="400" height="32" rx="16" style="fill:#d7a145"/><rect x="56" y="296" width="400" height="32" rx="16" style="fill:#ecae49"/><rect x="56" y="232" width="400" height="32" rx="16" style="fill:#ecae49"/><path d="M217.985,344h0a15.876,15.876,0,0,1-15.754-17.846l12.031-96.247A15.876,15.876,0,0,1,230.015,216h0a15.876,15.876,0,0,1,15.754,17.846l-12.031,96.247A15.876,15.876,0,0,1,217.985,344Z" style="fill:#d08b29"/><path d="M249.985,344h0a15.876,15.876,0,0,1-15.754-17.846l12.031-96.247A15.876,15.876,0,0,1,262.015,216h0a15.876,15.876,0,0,1,15.754,17.846l-12.031,96.247A15.876,15.876,0,0,1,249.985,344Z" style="fill:#ecae49"/><path d="M281.985,344h0a15.876,15.876,0,0,1-15.754-17.846l12.031-96.247A15.876,15.876,0,0,1,294.015,216h0a15.876,15.876,0,0,1,15.754,17.846l-12.031,96.247A15.876,15.876,0,0,1,281.985,344Z" style="fill:#d08b29"/><rect x="80" y="328" width="96" height="16" style="fill:#eb9180"/><rect x="336" y="328" width="96" height="16" style="fill:#eb9180"/><path d="M457.869,264A23.984,23.984,0,0,0,440,224V185.862a160.413,160.413,0,0,0,16-69.639V88a23.992,23.992,0,0,0-32-22.624V64a23.992,23.992,0,0,0-32-22.624V40a24,24,0,0,0-47.154-6.3A23.985,23.985,0,0,0,312,56V91.056l-8.4,4.2a42.685,42.685,0,0,0-4.588,73.7l21.867,14.578A15.969,15.969,0,0,1,328,196.844V224H316.547a23.837,23.837,0,0,0-38.517-9.828,23.825,23.825,0,0,0-32,0A23.852,23.852,0,0,0,207.5,224H184V196.844a15.969,15.969,0,0,1,7.125-13.313l21.867-14.578a42.685,42.685,0,0,0-4.588-73.7l-8.4-4.2V56a23.985,23.985,0,0,0-32.846-22.3A24,24,0,0,0,120,40v1.376A23.992,23.992,0,0,0,88,64v1.376A23.992,23.992,0,0,0,56,88v28.223a160.413,160.413,0,0,0,16,69.639V224a23.984,23.984,0,0,0-17.869,40,23.943,23.943,0,0,0,0,32A23.984,23.984,0,0,0,72,336v24H64a8,8,0,0,0-8,8V496H72V376H184V496h16V368a8,8,0,0,0-8-8h-8V336h11.453a23.837,23.837,0,0,0,38.517,9.828,23.825,23.825,0,0,0,32,0A23.852,23.852,0,0,0,304.5,336H328v24h-8a8,8,0,0,0-8,8V496h16V376H440V496h16V368a8,8,0,0,0-8-8h-8V336a23.984,23.984,0,0,0,17.869-40,23.943,23.943,0,0,0,0-32ZM448,280a8.009,8.009,0,0,1-8,8H311.062l2-16H440A8.009,8.009,0,0,1,448,280Zm0-32a8.009,8.009,0,0,1-8,8H315.062l2-16H440A8.009,8.009,0,0,1,448,248ZM329.75,170.219l-21.867-14.578a26.687,26.687,0,0,1,2.868-46.073l1.249-.624V128h16V56a8,8,0,0,1,16,0V88h16V40a8,8,0,0,1,16,0V96h16V64a8,8,0,0,1,16,0v40h16V88a8,8,0,0,1,16,0v28.223a144.3,144.3,0,0,1-15.155,64.2A7.991,7.991,0,0,0,424,184v40H344V196.844A31.935,31.935,0,0,0,329.75,170.219Zm-242.595,10.2A144.3,144.3,0,0,1,72,116.223V88a8,8,0,0,1,16,0v16h16V64a8,8,0,0,1,16,0V96h16V40a8,8,0,0,1,16,0V88h16V56a8,8,0,0,1,16,0v72h16V108.944l1.249.624a26.687,26.687,0,0,1,2.868,46.073L182.25,170.219A31.935,31.935,0,0,0,168,196.844V224H88V184A7.991,7.991,0,0,0,87.155,180.422ZM72,240H204.938l-2,16H72a8,8,0,0,1,0-16Zm-8,40a8.009,8.009,0,0,1,8-8H200.938l-2,16H72A8.009,8.009,0,0,1,64,280Zm0,32a8.009,8.009,0,0,1,8-8H196.938l-2,16H72A8.009,8.009,0,0,1,64,312Zm104,48H88V336h80Zm49.984-24a7.879,7.879,0,0,1-7.816-8.854L222.2,230.9a7.889,7.889,0,0,1,7.816-6.9,7.878,7.878,0,0,1,7.816,8.851l-11.54,92.312,0,.02-.49,3.918A7.889,7.889,0,0,1,217.984,336Zm32,0a7.878,7.878,0,0,1-7.816-8.851l11.54-92.312,0-.02.49-3.918a7.889,7.889,0,0,1,7.816-6.9,7.878,7.878,0,0,1,7.816,8.851l-11.54,92.312,0,.02-.49,3.918A7.889,7.889,0,0,1,249.984,336Zm32,0a7.878,7.878,0,0,1-7.816-8.851l11.54-92.312,0-.02.49-3.918a7.889,7.889,0,0,1,7.816-6.9,7.879,7.879,0,0,1,7.816,8.854L289.8,329.1A7.889,7.889,0,0,1,281.984,336ZM424,360H344V336h80Zm16-40H307.062l2-16H440a8,8,0,0,1,0,16Z"/></svg>
